<mxfile host="app.diagrams.net" agent="Mozilla/5.0 (Macintosh; Intel Mac OS X 10_15_7) AppleWebKit/537.36 (KHTML, like Gecko) Chrome/141.0.0.0 Safari/537.36" version="28.2.8">
  <diagram name="Page-1" id="8HMnGK2PMrrFws7oDDwf">
    <mxGraphModel dx="2208" dy="1220" grid="1" gridSize="10" guides="1" tooltips="1" connect="1" arrows="1" fold="1" page="1" pageScale="1" pageWidth="827" pageHeight="1169" math="0" shadow="0">
      <root>
        <mxCell id="0" />
        <mxCell id="1" parent="0" />
        <mxCell id="VsD-klNZcKKPu74HzqNU-1" value="Course" style="swimlane;fontStyle=1;align=center;verticalAlign=top;childLayout=stackLayout;horizontal=1;startSize=34.666666666666664;horizontalStack=0;resizeParent=1;resizeParentMax=0;resizeLast=0;collapsible=0;marginBottom=0;" vertex="1" parent="1">
          <mxGeometry x="600" y="10" width="281" height="217.66666666666666" as="geometry" />
        </mxCell>
        <mxCell id="VsD-klNZcKKPu74HzqNU-2" value="- code: String" style="text;strokeColor=none;fillColor=none;align=left;verticalAlign=top;spacingLeft=4;spacingRight=4;overflow=hidden;rotatable=0;points=[[0,0.5],[1,0.5]];portConstraint=eastwest;" vertex="1" parent="VsD-klNZcKKPu74HzqNU-1">
          <mxGeometry y="34.666666666666664" width="281" height="35" as="geometry" />
        </mxCell>
        <mxCell id="VsD-klNZcKKPu74HzqNU-3" value="- title: String" style="text;strokeColor=none;fillColor=none;align=left;verticalAlign=top;spacingLeft=4;spacingRight=4;overflow=hidden;rotatable=0;points=[[0,0.5],[1,0.5]];portConstraint=eastwest;" vertex="1" parent="VsD-klNZcKKPu74HzqNU-1">
          <mxGeometry y="69.66666666666666" width="281" height="35" as="geometry" />
        </mxCell>
        <mxCell id="VsD-klNZcKKPu74HzqNU-4" style="line;strokeWidth=1;fillColor=none;align=left;verticalAlign=middle;spacingTop=-1;spacingLeft=3;spacingRight=3;rotatable=0;labelPosition=right;points=[];portConstraint=eastwest;strokeColor=inherit;" vertex="1" parent="VsD-klNZcKKPu74HzqNU-1">
          <mxGeometry y="104.66666666666666" width="281" height="8" as="geometry" />
        </mxCell>
        <mxCell id="VsD-klNZcKKPu74HzqNU-5" value="+ enroll(s: Student)" style="text;strokeColor=none;fillColor=none;align=left;verticalAlign=top;spacingLeft=4;spacingRight=4;overflow=hidden;rotatable=0;points=[[0,0.5],[1,0.5]];portConstraint=eastwest;" vertex="1" parent="VsD-klNZcKKPu74HzqNU-1">
          <mxGeometry y="112.66666666666666" width="281" height="35" as="geometry" />
        </mxCell>
        <mxCell id="VsD-klNZcKKPu74HzqNU-6" value="+ addAssignment(a: Assignment)" style="text;strokeColor=none;fillColor=none;align=left;verticalAlign=top;spacingLeft=4;spacingRight=4;overflow=hidden;rotatable=0;points=[[0,0.5],[1,0.5]];portConstraint=eastwest;" vertex="1" parent="VsD-klNZcKKPu74HzqNU-1">
          <mxGeometry y="147.66666666666666" width="281" height="35" as="geometry" />
        </mxCell>
        <mxCell id="VsD-klNZcKKPu74HzqNU-7" value="+ assignments() : : List" style="text;strokeColor=none;fillColor=none;align=left;verticalAlign=top;spacingLeft=4;spacingRight=4;overflow=hidden;rotatable=0;points=[[0,0.5],[1,0.5]];portConstraint=eastwest;" vertex="1" parent="VsD-klNZcKKPu74HzqNU-1">
          <mxGeometry y="182.66666666666666" width="281" height="35" as="geometry" />
        </mxCell>
        <mxCell id="VsD-klNZcKKPu74HzqNU-8" value="Assignment" style="swimlane;fontStyle=1;align=center;verticalAlign=top;childLayout=stackLayout;horizontal=1;startSize=31.11111111111111;horizontalStack=0;resizeParent=1;resizeParentMax=0;resizeLast=0;collapsible=0;marginBottom=0;" vertex="1" parent="1">
          <mxGeometry x="1110" y="140" width="340" height="290.0011111111111" as="geometry" />
        </mxCell>
        <mxCell id="VsD-klNZcKKPu74HzqNU-9" value="- id: UUID" style="text;strokeColor=none;fillColor=none;align=left;verticalAlign=top;spacingLeft=4;spacingRight=4;overflow=hidden;rotatable=0;points=[[0,0.5],[1,0.5]];portConstraint=eastwest;" vertex="1" parent="VsD-klNZcKKPu74HzqNU-8">
          <mxGeometry y="31.11111111111111" width="340" height="31" as="geometry" />
        </mxCell>
        <mxCell id="VsD-klNZcKKPu74HzqNU-10" value="- title: String" style="text;strokeColor=none;fillColor=none;align=left;verticalAlign=top;spacingLeft=4;spacingRight=4;overflow=hidden;rotatable=0;points=[[0,0.5],[1,0.5]];portConstraint=eastwest;" vertex="1" parent="VsD-klNZcKKPu74HzqNU-8">
          <mxGeometry y="62.111111111111114" width="340" height="31" as="geometry" />
        </mxCell>
        <mxCell id="VsD-klNZcKKPu74HzqNU-11" value="- deadline: DateTime" style="text;strokeColor=none;fillColor=none;align=left;verticalAlign=top;spacingLeft=4;spacingRight=4;overflow=hidden;rotatable=0;points=[[0,0.5],[1,0.5]];portConstraint=eastwest;" vertex="1" parent="VsD-klNZcKKPu74HzqNU-8">
          <mxGeometry y="93.11111111111111" width="340" height="31" as="geometry" />
        </mxCell>
        <mxCell id="VsD-klNZcKKPu74HzqNU-12" value="- locked: boolean" style="text;strokeColor=none;fillColor=none;align=left;verticalAlign=top;spacingLeft=4;spacingRight=4;overflow=hidden;rotatable=0;points=[[0,0.5],[1,0.5]];portConstraint=eastwest;" vertex="1" parent="VsD-klNZcKKPu74HzqNU-8">
          <mxGeometry y="124.11111111111111" width="340" height="31" as="geometry" />
        </mxCell>
        <mxCell id="VsD-klNZcKKPu74HzqNU-13" style="line;strokeWidth=1;fillColor=none;align=left;verticalAlign=middle;spacingTop=-1;spacingLeft=3;spacingRight=3;rotatable=0;labelPosition=right;points=[];portConstraint=eastwest;strokeColor=inherit;" vertex="1" parent="VsD-klNZcKKPu74HzqNU-8">
          <mxGeometry y="155.11111111111111" width="340" height="8" as="geometry" />
        </mxCell>
        <mxCell id="VsD-klNZcKKPu74HzqNU-14" value="+ publish()" style="text;strokeColor=none;fillColor=none;align=left;verticalAlign=top;spacingLeft=4;spacingRight=4;overflow=hidden;rotatable=0;points=[[0,0.5],[1,0.5]];portConstraint=eastwest;" vertex="1" parent="VsD-klNZcKKPu74HzqNU-8">
          <mxGeometry y="163.11111111111111" width="340" height="31" as="geometry" />
        </mxCell>
        <mxCell id="VsD-klNZcKKPu74HzqNU-15" value="+ lockSubmissions()" style="text;strokeColor=none;fillColor=none;align=left;verticalAlign=top;spacingLeft=4;spacingRight=4;overflow=hidden;rotatable=0;points=[[0,0.5],[1,0.5]];portConstraint=eastwest;" vertex="1" parent="VsD-klNZcKKPu74HzqNU-8">
          <mxGeometry y="194.11111111111111" width="340" height="31" as="geometry" />
        </mxCell>
        <mxCell id="VsD-klNZcKKPu74HzqNU-16" value="+ isOpen() : : boolean" style="text;strokeColor=none;fillColor=none;align=left;verticalAlign=top;spacingLeft=4;spacingRight=4;overflow=hidden;rotatable=0;points=[[0,0.5],[1,0.5]];portConstraint=eastwest;" vertex="1" parent="VsD-klNZcKKPu74HzqNU-8">
          <mxGeometry y="225.11111111111111" width="340" height="31" as="geometry" />
        </mxCell>
        <mxCell id="VsD-klNZcKKPu74HzqNU-17" value="+ createSubmission(s: Student, fileLink: String) : : Submission" style="text;strokeColor=none;fillColor=none;align=left;verticalAlign=top;spacingLeft=4;spacingRight=4;overflow=hidden;rotatable=0;points=[[0,0.5],[1,0.5]];portConstraint=eastwest;" vertex="1" parent="VsD-klNZcKKPu74HzqNU-8">
          <mxGeometry y="256.1111111111111" width="340" height="33.89" as="geometry" />
        </mxCell>
        <mxCell id="VsD-klNZcKKPu74HzqNU-18" value="Submission" style="swimlane;fontStyle=1;align=center;verticalAlign=top;childLayout=stackLayout;horizontal=1;startSize=31.11111111111111;horizontalStack=0;resizeParent=1;resizeParentMax=0;resizeLast=0;collapsible=0;marginBottom=0;" vertex="1" parent="1">
          <mxGeometry x="750" y="560" width="210" height="287.1111111111111" as="geometry" />
        </mxCell>
        <mxCell id="VsD-klNZcKKPu74HzqNU-19" value="- id: UUID" style="text;strokeColor=none;fillColor=none;align=left;verticalAlign=top;spacingLeft=4;spacingRight=4;overflow=hidden;rotatable=0;points=[[0,0.5],[1,0.5]];portConstraint=eastwest;" vertex="1" parent="VsD-klNZcKKPu74HzqNU-18">
          <mxGeometry y="31.11111111111111" width="210" height="31" as="geometry" />
        </mxCell>
        <mxCell id="VsD-klNZcKKPu74HzqNU-20" value="- timestamp: DateTime" style="text;strokeColor=none;fillColor=none;align=left;verticalAlign=top;spacingLeft=4;spacingRight=4;overflow=hidden;rotatable=0;points=[[0,0.5],[1,0.5]];portConstraint=eastwest;" vertex="1" parent="VsD-klNZcKKPu74HzqNU-18">
          <mxGeometry y="62.111111111111114" width="210" height="31" as="geometry" />
        </mxCell>
        <mxCell id="VsD-klNZcKKPu74HzqNU-21" value="- fileLink: String" style="text;strokeColor=none;fillColor=none;align=left;verticalAlign=top;spacingLeft=4;spacingRight=4;overflow=hidden;rotatable=0;points=[[0,0.5],[1,0.5]];portConstraint=eastwest;" vertex="1" parent="VsD-klNZcKKPu74HzqNU-18">
          <mxGeometry y="93.11111111111111" width="210" height="31" as="geometry" />
        </mxCell>
        <mxCell id="VsD-klNZcKKPu74HzqNU-22" value="- grade: Double" style="text;strokeColor=none;fillColor=none;align=left;verticalAlign=top;spacingLeft=4;spacingRight=4;overflow=hidden;rotatable=0;points=[[0,0.5],[1,0.5]];portConstraint=eastwest;" vertex="1" parent="VsD-klNZcKKPu74HzqNU-18">
          <mxGeometry y="124.11111111111111" width="210" height="31" as="geometry" />
        </mxCell>
        <mxCell id="VsD-klNZcKKPu74HzqNU-23" value="- feedback: String" style="text;strokeColor=none;fillColor=none;align=left;verticalAlign=top;spacingLeft=4;spacingRight=4;overflow=hidden;rotatable=0;points=[[0,0.5],[1,0.5]];portConstraint=eastwest;" vertex="1" parent="VsD-klNZcKKPu74HzqNU-18">
          <mxGeometry y="155.11111111111111" width="210" height="31" as="geometry" />
        </mxCell>
        <mxCell id="VsD-klNZcKKPu74HzqNU-24" style="line;strokeWidth=1;fillColor=none;align=left;verticalAlign=middle;spacingTop=-1;spacingLeft=3;spacingRight=3;rotatable=0;labelPosition=right;points=[];portConstraint=eastwest;strokeColor=inherit;" vertex="1" parent="VsD-klNZcKKPu74HzqNU-18">
          <mxGeometry y="186.11111111111111" width="210" height="8" as="geometry" />
        </mxCell>
        <mxCell id="VsD-klNZcKKPu74HzqNU-25" value="+ precheck() : : boolean" style="text;strokeColor=none;fillColor=none;align=left;verticalAlign=top;spacingLeft=4;spacingRight=4;overflow=hidden;rotatable=0;points=[[0,0.5],[1,0.5]];portConstraint=eastwest;" vertex="1" parent="VsD-klNZcKKPu74HzqNU-18">
          <mxGeometry y="194.11111111111111" width="210" height="31" as="geometry" />
        </mxCell>
        <mxCell id="VsD-klNZcKKPu74HzqNU-26" value="+ mark(score: double, note: String)" style="text;strokeColor=none;fillColor=none;align=left;verticalAlign=top;spacingLeft=4;spacingRight=4;overflow=hidden;rotatable=0;points=[[0,0.5],[1,0.5]];portConstraint=eastwest;" vertex="1" parent="VsD-klNZcKKPu74HzqNU-18">
          <mxGeometry y="225.11111111111111" width="210" height="31" as="geometry" />
        </mxCell>
        <mxCell id="VsD-klNZcKKPu74HzqNU-27" value="+ getGrade() : : Double" style="text;strokeColor=none;fillColor=none;align=left;verticalAlign=top;spacingLeft=4;spacingRight=4;overflow=hidden;rotatable=0;points=[[0,0.5],[1,0.5]];portConstraint=eastwest;" vertex="1" parent="VsD-klNZcKKPu74HzqNU-18">
          <mxGeometry y="256.1111111111111" width="210" height="31" as="geometry" />
        </mxCell>
        <mxCell id="VsD-klNZcKKPu74HzqNU-28" value="Student" style="swimlane;fontStyle=1;align=center;verticalAlign=top;childLayout=stackLayout;horizontal=1;startSize=34.666666666666664;horizontalStack=0;resizeParent=1;resizeParentMax=0;resizeLast=0;collapsible=0;marginBottom=0;" vertex="1" parent="1">
          <mxGeometry x="279" y="260" width="310" height="217.66666666666666" as="geometry" />
        </mxCell>
        <mxCell id="VsD-klNZcKKPu74HzqNU-29" value="- id: UUID" style="text;strokeColor=none;fillColor=none;align=left;verticalAlign=top;spacingLeft=4;spacingRight=4;overflow=hidden;rotatable=0;points=[[0,0.5],[1,0.5]];portConstraint=eastwest;" vertex="1" parent="VsD-klNZcKKPu74HzqNU-28">
          <mxGeometry y="34.666666666666664" width="310" height="35" as="geometry" />
        </mxCell>
        <mxCell id="VsD-klNZcKKPu74HzqNU-30" value="- name: String" style="text;strokeColor=none;fillColor=none;align=left;verticalAlign=top;spacingLeft=4;spacingRight=4;overflow=hidden;rotatable=0;points=[[0,0.5],[1,0.5]];portConstraint=eastwest;" vertex="1" parent="VsD-klNZcKKPu74HzqNU-28">
          <mxGeometry y="69.66666666666666" width="310" height="35" as="geometry" />
        </mxCell>
        <mxCell id="VsD-klNZcKKPu74HzqNU-31" value="- email: String" style="text;strokeColor=none;fillColor=none;align=left;verticalAlign=top;spacingLeft=4;spacingRight=4;overflow=hidden;rotatable=0;points=[[0,0.5],[1,0.5]];portConstraint=eastwest;" vertex="1" parent="VsD-klNZcKKPu74HzqNU-28">
          <mxGeometry y="104.66666666666666" width="310" height="35" as="geometry" />
        </mxCell>
        <mxCell id="VsD-klNZcKKPu74HzqNU-32" style="line;strokeWidth=1;fillColor=none;align=left;verticalAlign=middle;spacingTop=-1;spacingLeft=3;spacingRight=3;rotatable=0;labelPosition=right;points=[];portConstraint=eastwest;strokeColor=inherit;" vertex="1" parent="VsD-klNZcKKPu74HzqNU-28">
          <mxGeometry y="139.66666666666666" width="310" height="8" as="geometry" />
        </mxCell>
        <mxCell id="VsD-klNZcKKPu74HzqNU-33" value="+ submit(a: Assignment, fileLink: String) : : Submission" style="text;strokeColor=none;fillColor=none;align=left;verticalAlign=top;spacingLeft=4;spacingRight=4;overflow=hidden;rotatable=0;points=[[0,0.5],[1,0.5]];portConstraint=eastwest;" vertex="1" parent="VsD-klNZcKKPu74HzqNU-28">
          <mxGeometry y="147.66666666666666" width="310" height="35" as="geometry" />
        </mxCell>
        <mxCell id="VsD-klNZcKKPu74HzqNU-34" value="+ viewGrades() : : List" style="text;strokeColor=none;fillColor=none;align=left;verticalAlign=top;spacingLeft=4;spacingRight=4;overflow=hidden;rotatable=0;points=[[0,0.5],[1,0.5]];portConstraint=eastwest;" vertex="1" parent="VsD-klNZcKKPu74HzqNU-28">
          <mxGeometry y="182.66666666666666" width="310" height="35" as="geometry" />
        </mxCell>
        <mxCell id="VsD-klNZcKKPu74HzqNU-35" value="Instructor" style="swimlane;fontStyle=1;align=center;verticalAlign=top;childLayout=stackLayout;horizontal=1;startSize=34.666666666666664;horizontalStack=0;resizeParent=1;resizeParentMax=0;resizeLast=0;collapsible=0;marginBottom=0;" vertex="1" parent="1">
          <mxGeometry x="1184" y="510" width="456" height="217.66666666666666" as="geometry" />
        </mxCell>
        <mxCell id="VsD-klNZcKKPu74HzqNU-36" value="- id: UUID" style="text;strokeColor=none;fillColor=none;align=left;verticalAlign=top;spacingLeft=4;spacingRight=4;overflow=hidden;rotatable=0;points=[[0,0.5],[1,0.5]];portConstraint=eastwest;" vertex="1" parent="VsD-klNZcKKPu74HzqNU-35">
          <mxGeometry y="34.666666666666664" width="456" height="35" as="geometry" />
        </mxCell>
        <mxCell id="VsD-klNZcKKPu74HzqNU-37" value="- name: String" style="text;strokeColor=none;fillColor=none;align=left;verticalAlign=top;spacingLeft=4;spacingRight=4;overflow=hidden;rotatable=0;points=[[0,0.5],[1,0.5]];portConstraint=eastwest;" vertex="1" parent="VsD-klNZcKKPu74HzqNU-35">
          <mxGeometry y="69.66666666666666" width="456" height="35" as="geometry" />
        </mxCell>
        <mxCell id="VsD-klNZcKKPu74HzqNU-38" style="line;strokeWidth=1;fillColor=none;align=left;verticalAlign=middle;spacingTop=-1;spacingLeft=3;spacingRight=3;rotatable=0;labelPosition=right;points=[];portConstraint=eastwest;strokeColor=inherit;" vertex="1" parent="VsD-klNZcKKPu74HzqNU-35">
          <mxGeometry y="104.66666666666666" width="456" height="8" as="geometry" />
        </mxCell>
        <mxCell id="VsD-klNZcKKPu74HzqNU-39" value="+ publishAssignment(c: Course, specTitle: String, deadline: DateTime) : Assignment" style="text;strokeColor=none;fillColor=none;align=left;verticalAlign=top;spacingLeft=4;spacingRight=4;overflow=hidden;rotatable=0;points=[[0,0.5],[1,0.5]];portConstraint=eastwest;" vertex="1" parent="VsD-klNZcKKPu74HzqNU-35">
          <mxGeometry y="112.66666666666666" width="456" height="35" as="geometry" />
        </mxCell>
        <mxCell id="VsD-klNZcKKPu74HzqNU-40" value="+ grade(sub: Submission, score: double, note: String)" style="text;strokeColor=none;fillColor=none;align=left;verticalAlign=top;spacingLeft=4;spacingRight=4;overflow=hidden;rotatable=0;points=[[0,0.5],[1,0.5]];portConstraint=eastwest;" vertex="1" parent="VsD-klNZcKKPu74HzqNU-35">
          <mxGeometry y="147.66666666666666" width="456" height="35" as="geometry" />
        </mxCell>
        <mxCell id="VsD-klNZcKKPu74HzqNU-41" value="+ lock(a: Assignment)" style="text;strokeColor=none;fillColor=none;align=left;verticalAlign=top;spacingLeft=4;spacingRight=4;overflow=hidden;rotatable=0;points=[[0,0.5],[1,0.5]];portConstraint=eastwest;" vertex="1" parent="VsD-klNZcKKPu74HzqNU-35">
          <mxGeometry y="182.66666666666666" width="456" height="35" as="geometry" />
        </mxCell>
        <mxCell id="VsD-klNZcKKPu74HzqNU-48" value="enrolls" style="curved=1;startArrow=none;endArrow=none;exitX=0.8;exitY=0;entryX=-0.002;entryY=0.136;rounded=0;entryDx=0;entryDy=0;entryPerimeter=0;" edge="1" parent="1" source="VsD-klNZcKKPu74HzqNU-28" target="VsD-klNZcKKPu74HzqNU-1">
          <mxGeometry relative="1" as="geometry">
            <Array as="points">
              <mxPoint x="517" y="128" />
            </Array>
          </mxGeometry>
        </mxCell>
        <mxCell id="VsD-klNZcKKPu74HzqNU-49" value="0..*" style="edgeLabel;resizable=0;labelBackgroundColor=none;fontSize=12;align=left;verticalAlign=bottom;" vertex="1" parent="VsD-klNZcKKPu74HzqNU-48">
          <mxGeometry x="-1" relative="1" as="geometry">
            <mxPoint x="-22" as="offset" />
          </mxGeometry>
        </mxCell>
        <mxCell id="VsD-klNZcKKPu74HzqNU-50" value="1" style="edgeLabel;resizable=0;labelBackgroundColor=none;fontSize=12;align=right;verticalAlign=top;" vertex="1" parent="VsD-klNZcKKPu74HzqNU-48">
          <mxGeometry x="1" relative="1" as="geometry">
            <mxPoint x="-9" y="-20" as="offset" />
          </mxGeometry>
        </mxCell>
        <mxCell id="VsD-klNZcKKPu74HzqNU-73" value="" style="endArrow=none;html=1;rounded=0;entryX=0.5;entryY=0;entryDx=0;entryDy=0;" edge="1" parent="1" target="VsD-klNZcKKPu74HzqNU-35">
          <mxGeometry width="50" height="50" relative="1" as="geometry">
            <mxPoint x="1360" y="430" as="sourcePoint" />
            <mxPoint x="1270" y="410" as="targetPoint" />
          </mxGeometry>
        </mxCell>
        <mxCell id="VsD-klNZcKKPu74HzqNU-75" value="1" style="text;html=1;whiteSpace=wrap;strokeColor=none;fillColor=none;align=center;verticalAlign=middle;rounded=0;" vertex="1" parent="1">
          <mxGeometry x="1410" y="490" width="20" height="20" as="geometry" />
        </mxCell>
        <mxCell id="VsD-klNZcKKPu74HzqNU-77" value="0..*" style="text;html=1;whiteSpace=wrap;strokeColor=none;fillColor=none;align=center;verticalAlign=middle;rounded=0;" vertex="1" parent="1">
          <mxGeometry x="1340" y="430" width="10" height="20" as="geometry" />
        </mxCell>
        <mxCell id="VsD-klNZcKKPu74HzqNU-79" value="" style="endArrow=none;html=1;rounded=0;entryX=0.998;entryY=0.996;entryDx=0;entryDy=0;entryPerimeter=0;exitX=0.25;exitY=0;exitDx=0;exitDy=0;" edge="1" parent="1" source="VsD-klNZcKKPu74HzqNU-18" target="VsD-klNZcKKPu74HzqNU-34">
          <mxGeometry width="50" height="50" relative="1" as="geometry">
            <mxPoint x="750" y="520" as="sourcePoint" />
            <mxPoint x="500" y="535" as="targetPoint" />
          </mxGeometry>
        </mxCell>
        <mxCell id="VsD-klNZcKKPu74HzqNU-80" value="1" style="text;html=1;whiteSpace=wrap;strokeColor=none;fillColor=none;align=center;verticalAlign=middle;rounded=0;" vertex="1" parent="1">
          <mxGeometry x="589" y="467.67" width="20" height="10" as="geometry" />
        </mxCell>
        <mxCell id="VsD-klNZcKKPu74HzqNU-81" value="0..*" style="text;html=1;whiteSpace=wrap;strokeColor=none;fillColor=none;align=center;verticalAlign=middle;rounded=0;" vertex="1" parent="1">
          <mxGeometry x="780" y="540" width="60" height="20" as="geometry" />
        </mxCell>
        <mxCell id="VsD-klNZcKKPu74HzqNU-92" value="1..*" style="text;html=1;whiteSpace=wrap;strokeColor=none;fillColor=none;align=center;verticalAlign=middle;rounded=0;" vertex="1" parent="1">
          <mxGeometry x="1240" y="110" width="40" height="30" as="geometry" />
        </mxCell>
        <mxCell id="VsD-klNZcKKPu74HzqNU-94" value="1" style="endArrow=open;html=1;endSize=12;startArrow=diamondThin;startSize=14;startFill=1;edgeStyle=orthogonalEdgeStyle;align=left;verticalAlign=bottom;rounded=0;" edge="1" parent="1">
          <mxGeometry x="-1" y="3" relative="1" as="geometry">
            <mxPoint x="881" y="50" as="sourcePoint" />
            <mxPoint x="1240" y="140" as="targetPoint" />
          </mxGeometry>
        </mxCell>
        <mxCell id="VsD-klNZcKKPu74HzqNU-101" value="" style="endArrow=open;html=1;endSize=12;startArrow=diamondThin;startSize=14;startFill=1;edgeStyle=orthogonalEdgeStyle;align=left;verticalAlign=bottom;rounded=0;exitX=0;exitY=0.5;exitDx=0;exitDy=0;entryX=0.887;entryY=0;entryDx=0;entryDy=0;entryPerimeter=0;" edge="1" parent="1" source="VsD-klNZcKKPu74HzqNU-17" target="VsD-klNZcKKPu74HzqNU-18">
          <mxGeometry x="-1" y="3" relative="1" as="geometry">
            <mxPoint x="930" y="380" as="sourcePoint" />
            <mxPoint x="936" y="559" as="targetPoint" />
          </mxGeometry>
        </mxCell>
        <mxCell id="VsD-klNZcKKPu74HzqNU-102" value="1" style="text;html=1;whiteSpace=wrap;strokeColor=none;fillColor=none;align=center;verticalAlign=middle;rounded=0;" vertex="1" parent="1">
          <mxGeometry x="1060" y="390" width="60" height="30" as="geometry" />
        </mxCell>
      </root>
    </mxGraphModel>
  </diagram>
</mxfile>
